<svg aria-hidden="true" style="position: absolute; width: 0; height: 0; overflow: hidden;" version="1.1"
    xmlns="http://www.w3.org/2000/svg" xmlns:xlink="http://www.w3.org/1999/xlink">
    <defs>
        <symbol id="icon-twitter" viewBox="0 0 32 32">
            <path
                d="M32 6.080c-1.12 0.48-2.4 0.8-3.84 0.96 1.347-0.785 2.365-2.010 2.867-3.475l0.013-0.045c-1.28 0.8-2.56 1.28-4.16 1.6-1.201-1.288-2.908-2.091-4.803-2.091-3.623 0-6.56 2.937-6.56 6.56 0 0.515 0.059 1.015 0.171 1.496l-0.009-0.044c-5.44-0.32-10.24-2.88-13.44-6.88-0.562 0.947-0.894 2.088-0.894 3.307 0 2.289 1.173 4.305 2.95 5.478l0.025 0.015c-1.117-0.011-2.163-0.306-3.072-0.817l0.032 0.017c0 3.2 2.24 5.92 5.28 6.4-0.553 0.173-1.188 0.272-1.847 0.272-0.422 0-0.835-0.041-1.234-0.119l0.040 0.007c0.96 2.72 3.2 4.64 6.24 4.64-2.212 1.759-5.047 2.822-8.129 2.822-0.575 0-1.141-0.037-1.697-0.109l0.066 0.007c2.88 1.92 6.4 2.72 10.080 2.72 0.003 0 0.007 0 0.011 0 10.25 0 18.56-8.31 18.56-18.56 0-0.225-0.004-0.449-0.012-0.672l0.001 0.032c1.44-0.96 2.4-2.080 3.36-3.36z">
            </path>
        </symbol>
        <symbol id="icon-envelope" viewBox="0 0 39 32">
            <path
                d="M35.692 2.462h-32c-1.969 0-3.692 1.723-3.692 3.692v22.154c0 1.969 1.723 3.692 3.692 3.692h32c1.969 0 3.692-1.723 3.692-3.692v-22.154c0-1.969-1.723-3.692-3.692-3.692zM35.692 4.923h0.492l-16.492 14.277-16.492-14.277h32.492zM35.692 29.538h-32c-0.68 0-1.231-0.551-1.231-1.231v0-20.923l16.492 14.277c0.203 0.154 0.46 0.246 0.738 0.246s0.535-0.092 0.742-0.248l-0.003 0.002 16.492-14.277v20.677c0 0.738-0.492 1.231-1.231 1.231z">
            </path>
        </symbol>
        <symbol id="icon-smartphone" viewBox="0 0 20 32">
            <path
                d="M17 0h-14c-1.6 0-3 1.4-3 3v26c0 1.6 1.4 3 3 3h14c1.6 0 3-1.4 3-3v-26c0-1.6-1.4-3-3-3zM3 2h14c0.6 0 1 0.4 1 1v21h-16v-21c0-0.6 0.4-1 1-1zM17 30h-14c-0.552 0-1-0.448-1-1v0-3h16v3c0 0.6-0.4 1-1 1z">
            </path>
            <path fill="#757575" style="fill: var(--color2, #757575)"
                d="M4.8 27.4v1.4c-0.4 0.4-1.2 0.4-1.6 0-0.248-0.139-0.413-0.4-0.413-0.7s0.165-0.561 0.409-0.698l0.004-0.002c0.4-0.2 1.2-0.2 1.6 0z">
            </path>
        </symbol>
        <symbol id="icon-linkedin" viewBox="0 0 32 32">
            <path
                d="M32 32v-11.68c0-5.76-1.28-10.24-8-10.24-3.2 0-5.28 1.76-6.24 3.52v-3.040h-6.56v21.44h6.56v-10.56c0-2.88 0.48-5.44 4-5.44 3.36 0 3.52 3.2 3.52 5.6v10.4h6.72zM0.48 10.56h6.72v21.44h-6.72v-21.44zM3.84 0c-2.080 0-3.84 1.6-3.84 3.84 0 2.080 1.6 3.84 3.84 3.84 2.121 0 3.84-1.719 3.84-3.84s-1.719-3.84-3.84-3.84v0z">
            </path>
        </symbol>
        <symbol id="icon-instagram-hover" viewBox="0 0 32 32">
            <path fill="#fff" style="fill: var(--color1, #fff)"
                d="M31.968 9.408c-0.024-1.403-0.292-2.735-0.763-3.968l0.027 0.080c-0.427-1.109-1.058-2.054-1.854-2.83l-0.002-0.002c-0.8-0.8-1.76-1.44-2.832-1.84-1.151-0.448-2.483-0.721-3.875-0.752l-0.013-0c-1.458-0.070-3.167-0.109-4.885-0.109-0.6 0-1.199 0.005-1.797 0.014l0.090-0.001c-4.352 0-4.896 0.016-6.592 0.096-1.712 0.064-2.88 0.352-3.888 0.736-1.072 0.416-2.032 1.040-2.832 1.856-0.816 0.8-1.44 1.76-1.856 2.832-0.443 1.152-0.711 2.485-0.736 3.877l-0 0.011c-0.070 1.458-0.109 3.167-0.109 4.885 0 0.6 0.005 1.199 0.014 1.797l-0.001-0.090c0 4.352 0 4.896 0.080 6.592 0.030 1.405 0.303 2.737 0.779 3.968l-0.027-0.080c0.4 1.072 1.040 2.032 1.856 2.832 0.8 0.816 1.76 1.44 2.832 1.856 1.008 0.384 2.176 0.656 3.872 0.736 1.712 0.080 2.24 0.096 6.592 0.096s4.896-0.016 6.608-0.096c1.397-0.026 2.724-0.294 3.952-0.763l-0.080 0.027c2.16-0.851 3.837-2.528 4.669-4.633l0.019-0.055c0.384-1.024 0.672-2.176 0.736-3.888 0.080-1.696 0.096-2.24 0.096-6.592 0-4.336 0-4.88-0.080-6.592zM29.088 22.48c-0.064 1.552-0.32 2.4-0.544 2.96-0.552 1.401-1.639 2.488-3.004 3.027l-0.036 0.013c-0.56 0.224-1.424 0.48-2.976 0.544-1.68 0.080-2.192 0.096-6.464 0.096-0.465 0.007-1.013 0.011-1.562 0.011-1.724 0-3.439-0.039-5.144-0.116l0.242 0.009c-1.568-0.064-2.4-0.32-2.96-0.544-0.722-0.271-1.337-0.68-1.839-1.199l-0.001-0.001c-0.518-0.5-0.926-1.108-1.189-1.79l-0.011-0.034c-0.336-0.884-0.535-1.905-0.544-2.972l-0-0.004c-0.068-1.463-0.107-3.179-0.107-4.903 0-0.549 0.004-1.097 0.012-1.643l-0.001 0.083c0-4.272 0.016-4.784 0.096-6.464 0.064-1.568 0.32-2.4 0.544-2.976 0.256-0.688 0.656-1.312 1.2-1.824 0.504-0.519 1.118-0.928 1.806-1.189l0.034-0.011c0.56-0.224 1.408-0.48 2.976-0.544 1.68-0.080 2.192-0.096 6.448-0.096 4.288 0 4.8 0 6.464 0.096 1.568 0.064 2.4 0.32 2.976 0.544 0.688 0.256 1.328 0.656 1.84 1.2 0.528 0.512 0.944 1.136 1.2 1.824 0.208 0.576 0.48 1.424 0.544 2.976 0.080 1.68 0.096 2.192 0.096 6.464s-0.016 4.768-0.096 6.464z">
            </path>
            <path fill="#fff" style="fill: var(--color1, #fff)"
                d="M16.064 7.776c-4.542 0-8.224 3.682-8.224 8.224s3.682 8.224 8.224 8.224v0c4.542 0 8.224-3.682 8.224-8.224s-3.682-8.224-8.224-8.224v0zM16.064 21.328c-2.943 0-5.328-2.385-5.328-5.328s2.385-5.328 5.328-5.328v0c2.943 0 5.328 2.385 5.328 5.328s-2.385 5.328-5.328 5.328v0zM26.528 7.456c0 1.060-0.86 1.92-1.92 1.92s-1.92-0.86-1.92-1.92v0c0-1.060 0.86-1.92 1.92-1.92s1.92 0.86 1.92 1.92v0z">
            </path>
        </symbol>

        <symbol id="icon-instagram" viewBox="0 0 32 32">
            <path
                d="M31.968 9.408c-0.074-1.701-0.349-2.869-0.742-3.882-0.424-1.111-1.054-2.059-1.85-2.837l-0.001-0.001c-0.78-0.792-1.724-1.419-2.778-1.827l-0.054-0.018c-1.019-0.394-2.181-0.667-3.882-0.742-1.712-0.082-2.256-0.101-6.602-0.101-4.344 0-4.888 0.019-6.595 0.094-1.699 0.074-2.869 0.349-3.88 0.742-1.112 0.424-2.060 1.054-2.839 1.85l-0.001 0.001c-0.791 0.78-1.418 1.724-1.825 2.778l-0.018 0.054c-0.395 1.019-0.669 2.181-0.744 3.882-0.082 1.712-0.101 2.256-0.101 6.602 0 4.344 0.019 4.888 0.094 6.595 0.075 1.701 0.35 2.869 0.744 3.882 0.426 1.11 1.055 2.057 1.849 2.837l0.001 0.001c0.8 0.813 1.77 1.443 2.832 1.843 1.019 0.395 2.182 0.67 3.882 0.744 1.707 0.075 2.251 0.094 6.595 0.094 4.346 0 4.89-0.019 6.595-0.094 1.701-0.074 2.869-0.349 3.882-0.742 2.157-0.85 3.833-2.526 4.664-4.628l0.019-0.055c0.394-1.019 0.669-2.182 0.744-3.882 0.075-1.707 0.093-2.251 0.093-6.595s-0.006-4.888-0.080-6.595zM29.088 22.474c-0.070 1.563-0.333 2.406-0.55 2.97-0.552 1.399-1.64 2.486-3.004 3.024l-0.036 0.012c-0.56 0.219-1.411 0.482-2.968 0.55-1.688 0.075-2.194 0.094-6.464 0.094-4.269 0-4.782-0.019-6.464-0.094-1.563-0.069-2.406-0.331-2.97-0.55-0.721-0.269-1.334-0.676-1.836-1.192l-0.001-0.001c-0.517-0.503-0.924-1.117-1.184-1.803l-0.011-0.034c-0.218-0.563-0.48-1.413-0.549-2.97-0.075-1.688-0.094-2.195-0.094-6.464 0-4.27 0.019-4.784 0.094-6.464 0.069-1.563 0.331-2.406 0.549-2.97 0.269-0.722 0.678-1.337 1.198-1.837l0.002-0.002c0.504-0.517 1.119-0.923 1.806-1.182l0.034-0.011c0.56-0.219 1.411-0.48 2.968-0.55 1.688-0.074 2.195-0.093 6.464-0.093 4.275 0 4.782 0.019 6.464 0.093 1.563 0.069 2.406 0.331 2.97 0.55 0.693 0.256 1.325 0.662 1.837 1.194 0.531 0.52 0.938 1.144 1.195 1.84 0.218 0.56 0.48 1.411 0.549 2.968 0.075 1.688 0.094 2.194 0.094 6.464 0 4.269-0.019 4.768-0.094 6.458z">
            </path>
            <path
                d="M16.059 7.782c-4.539 0.002-8.218 3.682-8.219 8.221v0c0.091 4.471 3.737 8.060 8.221 8.060s8.13-3.589 8.221-8.052l0-0.009c-0.001-4.54-3.681-8.22-8.221-8.221h-0zM16.059 21.334c-2.945-0-5.332-2.388-5.332-5.333s2.388-5.333 5.333-5.333c0 0 0.001 0 0.001 0h-0c2.946 0 5.334 2.388 5.334 5.334s-2.388 5.334-5.334 5.334v0zM26.525 7.458c0 1.060-0.86 1.92-1.92 1.92s-1.92-0.86-1.92-1.92v0c0-1.060 0.86-1.92 1.92-1.92s1.92 0.86 1.92 1.92v0z">
            </path>
        </symbol>

        <symbol id="icon-facebook" viewBox="0 0 32 32">
            <path
                d="M21.28 5.28h3.040v-5.12l-4.32-0.16c-4.16 0-7.040 2.72-7.040 7.52v4.48h-4.96v5.76h4.8v14.24h5.6v-14.4h4.48l0.8-5.6h-5.28v-3.84c0-1.6 0.48-2.88 2.72-2.88z">
            </path>
        </symbol>
        <symbol id="icon-diagram" viewBox="0 0 32 32">
            <path fill="#2196f3" style="fill: var(--color4, #2196f3)"
                d="M14.903 14.949h1.097v4.8h-1.097v-4.8zM19.2 17.097h1.051v2.651h-1.051v-2.651zM10.651 18.697h1.097v1.051h-1.097v-1.006zM7.451 18.149h1.097v1.6h-1.097v-1.6z">
            </path>
            <path fill="#212121" style="fill: var(--color5, #212121)"
                d="M1.6 28.297h25.6c0.869 0 1.6-0.731 1.6-1.6v-2.149c0-0.914-0.731-1.6-1.6-1.6h-0.549v-13.257l3.017-2.88c0.213 0.112 0.465 0.178 0.733 0.178 0.884 0 1.6-0.716 1.6-1.6s-0.716-1.6-1.6-1.6c-0.884 0-1.6 0.716-1.6 1.6 0 0.234 0.050 0.455 0.14 0.655l-0.004-0.010-2.286 2.149v-1.234c0-0.869-0.731-1.6-1.6-1.6h-21.303c-0.914 0-1.6 0.731-1.6 1.6v16h-0.549c-0.914 0-1.6 0.731-1.6 1.6v2.149c0 0.914 0.731 1.6 1.6 1.6zM30.4 4.846c0.047-0.014 0.101-0.023 0.157-0.023 0.303 0 0.549 0.246 0.549 0.549s-0.246 0.549-0.549 0.549c-0.056 0-0.11-0.008-0.161-0.024l0.004 0.001c-0.229-0.070-0.392-0.279-0.392-0.526s0.163-0.456 0.388-0.525l0.004-0.001zM3.2 6.949c0-0.274 0.229-0.503 0.549-0.503h21.303c0.274 0 0.549 0.229 0.549 0.503v2.286l-1.097 1.006v-2.194c0-0.32-0.229-0.549-0.503-0.549h-19.2c-0.274 0-0.549 0.229-0.549 0.549v13.303c0 0.32 0.274 0.549 0.549 0.549h19.2c0.274 0 0.503-0.229 0.503-0.549v-9.646l1.097-1.006v12.251h-22.4v-16zM8 13.897c-0.007-0-0.015-0-0.022-0-0.884 0-1.6 0.716-1.6 1.6s0.716 1.6 1.6 1.6c0.436 0 0.831-0.174 1.12-0.457l-0 0 1.829 0.914c0.229 0.137 0.503 0.091 0.686-0.091l3.931-4.434 3.84 2.88c0.229 0.183 0.503 0.137 0.686 0l3.383-3.2v8.137h-18.103v-12.297h18.103v2.697l-3.749 3.566-3.931-2.926c-0.229-0.183-0.549-0.137-0.731 0.046l-3.977 4.526-1.463-0.777v-0.137c0-0.914-0.686-1.6-1.554-1.6zM8.549 15.497c0 0.303-0.246 0.549-0.549 0.549s-0.549-0.246-0.549-0.549v0c0-0.303 0.246-0.549 0.549-0.549s0.549 0.246 0.549 0.549v0zM11.749 24.046h5.303v0.503c0 0.32-0.229 0.549-0.549 0.549h-4.251c-0.274 0-0.503-0.229-0.503-0.549v-0.503zM1.051 24.549c0-0.274 0.274-0.503 0.549-0.503h9.051v0.503c0 0.914 0.731 1.6 1.6 1.6h4.251c0.914 0 1.6-0.686 1.6-1.6v-0.503h9.097c0.274 0 0.503 0.229 0.503 0.503v2.149c0 0.274-0.229 0.549-0.503 0.549h-25.6c-0.274 0-0.549-0.274-0.549-0.549v-2.149z">
            </path>
        </symbol>
        <symbol id="icon-customer6" viewBox="0 0 67 32">
            <path
                d="M33.707 15.218c-0.269-0.353-0.431-0.801-0.431-1.286 0-0.048 0.002-0.096 0.005-0.143l-0 0.006v-2.062c0-0.569 0.142-1.067 0.427-1.422 0.284-0.284 0.782-0.498 1.422-0.498 0.711 0 1.209 0.142 1.422 0.427 0.356 0.356 0.498 0.782 0.427 1.209v0.498h-1.138v-0.924c0-0.142-0.142-0.213-0.213-0.284-0.117-0.089-0.266-0.142-0.427-0.142v0c-0.161 0-0.309 0.053-0.428 0.144l0.002-0.001c-0.142 0-0.213 0.142-0.213 0.284v2.987l0.071 0.711 0.284 0.142 0.284 0.071c0.142 0 0.284 0 0.427-0.142l0.142-0.284v-0.996h1.209v0.498c0 0.427-0.071 0.853-0.356 1.28-0.284 0.284-0.711 0.427-1.422 0.427s-1.209-0.142-1.422-0.498zM38.613 15.218c-0.356-0.284-0.498-0.711-0.498-1.422v-2.133c0-0.569 0.142-1.067 0.498-1.422 0.284-0.213 0.711-0.427 1.422-0.427s1.209 0.213 1.493 0.498c0.284 0.284 0.427 0.711 0.427 1.422v2.133c0 0.569-0.142 1.067-0.427 1.422-0.284 0.284-0.782 0.427-1.422 0.427-0.711 0-1.209-0.142-1.493-0.498zM40.604 14.72l0.142-0.64v-2.631c0-0.213 0-0.427-0.142-0.64l-0.213-0.142c-0.053-0.014-0.115-0.023-0.178-0.023s-0.124 0.008-0.183 0.024l0.005-0.001c-0.043-0.009-0.092-0.014-0.142-0.014s-0.099 0.005-0.147 0.015l0.005-0.001-0.213 0.142c-0.142 0.213-0.213 0.427-0.142 0.64v2.631c0 0.213 0 0.427 0.142 0.711l0.213 0.142c0.095 0.039 0.205 0.062 0.32 0.062s0.225-0.023 0.326-0.064l-0.006 0.002 0.213-0.213zM43.378 9.956h1.28l0.924 3.911 0.996-3.982h1.209l0.071 5.76h-0.853l-0.142-3.982-0.924 3.982h-0.711l-0.924-3.982-0.213 3.982h-0.924l0.142-5.689zM49.28 9.956h1.991c1.138 0 1.707 0.498 1.707 1.564s-0.64 1.564-1.778 1.564h-0.711v2.56h-1.209v-5.689zM50.987 12.373h0.356l0.284-0.213 0.213-0.64-0.071-0.498-0.071-0.142-0.213-0.142c-0.142-0.071-0.356-0.142-0.498-0.071h-0.498v1.707h0.498zM54.756 9.956h1.209l1.422 5.689h-1.209l-0.213-1.351h-1.209l-0.284 1.351h-1.138l1.422-5.689zM55.822 13.653l-0.498-2.418-0.427 2.418h0.924zM58.382 9.956h0.853l1.636 3.2v-3.2h0.996v5.689h-0.782l-1.636-3.413v3.413h-1.138v-5.689zM64.213 13.511l-1.351-3.556h1.138l0.853 2.204 0.711-2.276h1.138l-1.351 3.556v2.204h-1.138v-2.133zM35.556 18.133v0.356h-0.924v2.276h-0.498v-2.276h-0.996v-0.356h2.418zM38.684 20.764h-0.498l-0.284-0.711h-1.351l-0.284 0.711h-0.427l1.209-2.631h0.427l1.209 2.631zM36.693 19.911h1.138l-0.498-1.067-0.071-0.284v0.142l-0.071 0.142-0.498 1.067zM40.747 20.551h0.213c0.153-0.002 0.3-0.028 0.437-0.074l-0.010 0.003 0.142-0.071v-0.64h-0.569v-0.213h0.924v0.996c-0.223 0.146-0.488 0.248-0.773 0.284l-0.009 0.001h-0.356c-0.213 0-0.427 0-0.64-0.142-0.189-0.042-0.356-0.116-0.503-0.216l0.005 0.003-0.284-0.427-0.142-0.569c0-0.213 0-0.356 0.142-0.569 0-0.142 0.142-0.284 0.284-0.427 0.142-0.071 0.284-0.213 0.498-0.213 0.231-0.097 0.499-0.153 0.781-0.153 0.076 0 0.15 0.004 0.224 0.012l-0.009-0.001c0.189 0.047 0.355 0.12 0.504 0.217l-0.006-0.004 0.213 0.142-0.071 0.142h-0.284l-0.213-0.142c-0.145-0.072-0.313-0.122-0.491-0.142l-0.007-0.001c-0.184 0.018-0.353 0.069-0.506 0.146l0.008-0.004-0.356 0.142-0.213 0.356v0.924c0 0.142 0.142 0.284 0.284 0.356 0.19 0.177 0.446 0.286 0.727 0.286 0.020 0 0.039-0.001 0.058-0.002l-0.003 0zM44.587 20.48h1.351v0.284h-1.707v-2.631h0.356v2.347zM47.289 20.764h-0.356v-2.631h0.427v2.631zM48.853 18.133v0.071l1.849 1.991v-2.062h0.356v2.631h-0.356l-1.778-1.991v2.062h-0.356v-2.631h0.213zM54.044 18.133v0.284h-1.422v0.924h1.138v0.284h-1.138v0.853h1.422v0.284h-1.849v-2.631h1.849zM10.809 1.92l18.347 4.48v15.644l-18.347-4.48v-15.644zM9.6 0.498v17.991l20.693 4.978v-17.778l-20.622-5.191z">
            </path>
            <path d="M20.693 31.787l-20.693-5.049v-17.92l20.693 5.12v17.778z"></path>
            <path
                d="M9.956 1.707l18.062 4.409-7.68 6.684-18.062-4.48 7.68-6.613zM9.6 0.569l-9.6 8.249 20.693 5.12 9.6-8.32-20.622-5.049zM21.831 30.791l8.533-7.324-8.533-2.062v9.387z">
            </path>
        </symbol>
        <symbol id="icon-customer5" viewBox="0 0 57 32">
            <path
                d="M14.293 23.84c0.107 0.16 0.16 0.373 0.16 0.533l-0.053 0.373-0.213 0.267c-0.267 0.213-0.587 0.267-0.907 0.267h-1.547v-3.307h1.493c0.32 0 0.64 0.053 0.853 0.213l0.213 0.267 0.107 0.373c0 0.16-0.053 0.373-0.213 0.533l-0.427 0.213c0.213 0 0.373 0.16 0.533 0.267zM12.48 23.36h0.64c0.107 0 0.267 0 0.373-0.107l0.107-0.16 0.053-0.16v-0.16l-0.16-0.16c-0.107-0.107-0.267-0.107-0.427-0.107h-0.587v0.853zM13.547 24.64l0.16-0.16v-0.373l-0.107-0.16c-0.16-0.107-0.32-0.107-0.48-0.107h-0.64v0.907h0.64c0.16 0 0.32 0 0.48-0.107zM17.387 25.28l-0.853-1.28h-0.32v1.28h-0.747v-3.307h1.387c0.373 0 0.693 0.107 0.96 0.267 0.213 0.213 0.32 0.427 0.32 0.693s-0.053 0.533-0.213 0.693c-0.16 0.16-0.427 0.267-0.64 0.32l0.907 1.333h-0.8zM16.213 23.52h0.587c0.427 0 0.64-0.16 0.64-0.48l-0.053-0.213c-0.027-0.062-0.063-0.115-0.107-0.16l0 0-0.48-0.16h-0.587v1.067zM21.333 24.64h-1.44l-0.267 0.64h-0.747l1.333-3.253h0.8l1.333 3.253h-0.747l-0.267-0.64zM21.12 24.107l-0.533-1.387-0.533 1.387h1.067zM26.293 25.28h-0.693l-1.6-2.24v2.24h-0.747v-3.307h0.693l1.6 2.24v-2.24h0.747v3.307zM30.4 24.533c-0.107 0.213-0.373 0.427-0.64 0.533-0.32 0.16-0.64 0.213-1.013 0.213h-1.28v-3.307h1.333c0.373 0 0.693 0.053 1.067 0.213 0.213 0.107 0.48 0.32 0.587 0.533 0.143 0.254 0.228 0.557 0.228 0.88s-0.084 0.626-0.233 0.889l0.005-0.009zM29.6 24.427c0.195-0.209 0.315-0.491 0.315-0.8s-0.12-0.591-0.316-0.801l0.001 0.001c-0.267-0.213-0.533-0.32-0.907-0.267h-0.533v2.133h0.533c0.32 0 0.64-0.107 0.907-0.267zM21.813 3.627s9.28 3.2 9.067 7.84v7.893s-9.28-3.2-9.067-7.893v-7.84zM39.2 17.493c1.76-1.067 3.733-1.76 5.867-1.973v-2.453c-2.425 0.857-4.431 2.398-5.842 4.389l-0.025 0.037z">
            </path>
            <path
                d="M38.133 18.24c1.44-2.667 3.947-4.693 6.933-5.707v-7.093s-13.227 4.587-12.96 11.2v11.2l1.547-0.587v-1.067c0.32-3.093 1.92-5.92 4.48-7.947z">
            </path>
            <path
                d="M36.853 22.4c0.107-0.747 0.213-1.547 0.48-2.293-1.678 1.77-2.738 4.14-2.826 6.756l-0 0.017 2.56-1.227c-0.213-1.067-0.32-2.133-0.213-3.2zM37.387 22.4c-0.029 0.287-0.045 0.62-0.045 0.957 0 0.718 0.075 1.419 0.217 2.096l-0.012-0.066c3.627-1.973 7.68-5.067 7.52-8.747v-0.32c-2.56 0.267-5.013 1.28-6.88 2.933-0.427 1.067-0.693 2.133-0.8 3.2z">
            </path>
        </symbol>
        <symbol id="icon-customer4" viewBox="0 0 65 32">
            <path
                d="M9.981 9.981c-1.829 0-3.276 1.295-3.276 2.971 0 1.6 1.524 2.895 3.276 2.895 1.829 0 3.352-1.295 3.352-2.895 0-1.676-1.524-2.971-3.352-2.971zM34.438 9.067c0-2.286-0.99-4.419-2.819-6.095-1.752-1.448-4.19-2.362-6.781-2.362-2.514 0-4.952 0.914-6.781 2.514-1.752 1.524-2.743 3.81-2.743 6.019v12.419s19.048-1.905 19.048-12.419zM0 25.524c0 1.6 0.762 3.048 1.981 4.19 1.238 1.079 2.865 1.741 4.645 1.752h0.003c1.829 0 3.505-0.61 4.724-1.752 1.173-1.003 1.927-2.465 1.981-4.105l0-0.009v-8.686s-13.333 1.295-13.333 8.61zM6.629 27.048c-0.305 0-0.686 0-0.914-0.229-0.305-0.152-0.533-0.381-0.686-0.686-0.076-0.229-0.152-0.61-0.076-0.838 0-0.305 0.229-0.61 0.457-0.762 0.229-0.305 0.61-0.457 0.914-0.457h0.99c0.305 0.152 0.61 0.381 0.762 0.61 0.2 0.246 0.322 0.564 0.322 0.91 0 0.424-0.182 0.805-0.473 1.070l-0.001 0.001-0.61 0.305-0.686 0.152zM20.114 26.286h-1.295v1.295h-0.533v-3.2h2.057v0.61h-1.448v0.762h1.295v0.61zM23.314 26.057c0 0.305 0 0.61-0.152 0.762-0.208 0.453-0.658 0.762-1.181 0.762-0.014 0-0.027-0-0.040-0.001l0.002 0c-0.229 0-0.457 0-0.762-0.152l-0.457-0.533-0.152-0.838v-0.152c0-0.305 0-0.61 0.152-0.838 0.208-0.453 0.658-0.762 1.181-0.762 0.014 0 0.027 0 0.040 0.001l-0.002-0c0.305 0 0.533 0 0.762 0.152 0.152 0.152 0.381 0.381 0.457 0.61 0.152 0.229 0.152 0.533 0.152 0.762v0.229zM22.705 25.905c0-0.381-0.076-0.61-0.229-0.762-0.107-0.183-0.303-0.305-0.528-0.305-0.002 0-0.004 0-0.006 0h0c-0.229 0-0.381 0.076-0.533 0.305l-0.152 0.762v0.152c0 0.305 0 0.533 0.152 0.762 0.152 0.152 0.305 0.229 0.533 0.229s0.457 0 0.533-0.229c0.152-0.152 0.152-0.457 0.229-0.762v-0.152zM25.524 26.667s0-0.152-0.152-0.229l-0.457-0.229c-0.229 0-0.457-0.152-0.533-0.229-0.381-0.152-0.61-0.457-0.61-0.762l0.152-0.457c0.152-0.152 0.229-0.305 0.457-0.381l0.61-0.076 0.61 0.076 0.457 0.381 0.152 0.533h-0.686c0-0.152 0-0.229-0.152-0.381-0.087-0.051-0.192-0.081-0.304-0.081-0.027 0-0.054 0.002-0.080 0.005l0.003-0-0.381 0.076-0.152 0.305c0 0.076 0 0.152 0.152 0.229l0.457 0.229c0.381 0.076 0.686 0.229 0.838 0.381 0.229 0.229 0.305 0.381 0.305 0.686s-0.152 0.457-0.305 0.686c-0.229 0.152-0.533 0.229-0.914 0.229-0.229 0-0.457 0-0.686-0.152l-0.457-0.381-0.152-0.533h0.686c0 0.305 0.229 0.533 0.61 0.533 0.152 0 0.305 0 0.381-0.152l0.152-0.229zM29.105 24.914h-0.99v2.667h-0.686v-2.667h-0.99v-0.61h2.667v0.61zM31.39 26.21h-1.219v0.838h1.524v0.533h-2.286v-3.2h2.286v0.61h-1.524v0.762h1.295v0.533zM33.219 26.362h-0.457v1.219h-0.61v-3.2h1.143c0.457 0 0.762 0.152 0.914 0.305 0.229 0.152 0.305 0.381 0.305 0.762 0 0.152 0 0.381-0.152 0.533 0 0.152-0.229 0.229-0.381 0.305l0.686 1.371h-0.762l-0.61-1.219zM32.762 25.905h0.61l0.381-0.076 0.076-0.381-0.076-0.381-0.457-0.076h-0.533v0.914zM36.876 26.514v1.143h-0.762v-3.276h1.371l0.61 0.152 0.457 0.381 0.152 0.61c0 0.305-0.152 0.533-0.381 0.762-0.229 0.152-0.533 0.229-0.914 0.229h-0.533zM36.876 25.981h0.61c0.152 0 0.305 0 0.381-0.152l0.152-0.305c0-0.152 0-0.305-0.152-0.381-0.096-0.094-0.228-0.152-0.373-0.152-0.003 0-0.005 0-0.008 0h-0.609v0.914zM41.067 26.286h-1.295v0.838h1.524v0.533h-2.133v-3.276h1.981v0.61h-1.524v0.762h1.295v0.533zM44.19 24.99h-0.99v2.667h-0.686v-2.667h-0.99v-0.61h2.667v0.61zM46.476 26.286h-1.219v0.838h1.524v0.533h-2.21v-3.276h2.21v0.61h-1.524v0.762h1.219v0.533zM48.381 26.438h-0.533v1.219h-0.762v-3.276h1.295c0.381 0 0.686 0.152 0.838 0.305 0.229 0.152 0.305 0.381 0.305 0.762l-0.076 0.533-0.457 0.305 0.762 1.371h-0.762l-0.61-1.219zM47.848 25.905h0.533l0.381-0.076 0.152-0.381c0-0.152 0-0.305-0.152-0.381l-0.381-0.076h-0.533v0.914zM51.733 26.819l-0.076-0.305-0.533-0.229c-0.229 0-0.381-0.152-0.533-0.229-0.381-0.152-0.533-0.457-0.533-0.762 0-0.229 0-0.381 0.152-0.457 0-0.152 0.229-0.305 0.381-0.381l0.61-0.076 0.686 0.076 0.381 0.381 0.152 0.533h-0.686c0-0.152 0-0.229-0.152-0.381-0.087-0.051-0.192-0.081-0.304-0.081-0.027 0-0.054 0.002-0.080 0.005l0.003-0-0.381 0.076-0.152 0.305 0.229 0.229 0.457 0.229c0.381 0.076 0.61 0.229 0.762 0.381 0.229 0.229 0.305 0.381 0.305 0.686s-0.076 0.457-0.305 0.686c-0.229 0.152-0.533 0.229-0.838 0.229s-0.533 0-0.762-0.152l-0.457-0.381-0.152-0.533h0.762c0 0.305 0.152 0.533 0.61 0.533 0.152 0 0.229 0 0.381-0.152l0.076-0.229z">
            </path>
        </symbol>
        <symbol id="icon-customer3" viewBox="0 0 34 32">
            <path
                d="M5.638 31.314l0.229 0.152-0.457 0.305-0.686 0.152c-0.229 0-0.381 0-0.61-0.152l-0.457-0.229-0.305-0.457c-0.070-0.169-0.111-0.365-0.111-0.571s0.041-0.402 0.115-0.582l-0.004 0.010 0.305-0.457c0.152-0.076 0.305-0.229 0.533-0.229 0.182-0.061 0.392-0.096 0.61-0.096s0.427 0.035 0.624 0.1l-0.014-0.004 0.457 0.229-0.152 0.152h-0.229l-0.076-0.076c-0.17-0.096-0.374-0.153-0.59-0.153-0.007 0-0.013 0-0.020 0h0.001l-0.457 0.076-0.381 0.229c0 0.152-0.152 0.229-0.229 0.381v0.914l0.229 0.305 0.381 0.229h0.686c0.206-0.023 0.388-0.105 0.535-0.23l-0.001 0.001h0.076zM10.438 30.476l-0.076 0.61-0.381 0.457-0.457 0.229c-0.381 0.152-0.838 0.152-1.295 0-0.175-0.054-0.326-0.132-0.461-0.232l0.004 0.003-0.305-0.457c-0.070-0.169-0.111-0.365-0.111-0.571s0.041-0.402 0.115-0.582l-0.004 0.010c0-0.152 0.152-0.305 0.305-0.457l0.457-0.229c0.457-0.152 0.914-0.152 1.295 0l0.457 0.229c0.282 0.239 0.459 0.594 0.459 0.989 0 0.027-0.001 0.054-0.002 0.081l0-0.004zM9.981 30.476v-0.381c-0.091-0.293-0.317-0.519-0.603-0.608l-0.006-0.002c-0.137-0.045-0.294-0.070-0.457-0.070s-0.32 0.026-0.468 0.073l0.011-0.003-0.381 0.229-0.229 0.381v0.838c0.091 0.293 0.317 0.519 0.603 0.608l0.006 0.002h0.914l0.305-0.229c0.152-0.076 0.229-0.229 0.229-0.381l0.076-0.381zM13.714 31.010v0.076l0.076-0.076v-0.152l1.143-1.676h0.533v2.667h-0.381v-2.133l-1.067 1.676-0.152 0.076h-0.152l-1.295-1.752v2.21h-0.381v-2.667h0.457l1.067 1.676 0.076 0.152zM17.676 30.857v0.99h-0.381v-2.667h1.448c0.152 0 0.229 0.152 0.381 0.229l0.152 0.229 0.076 0.381v0.305l-0.305 0.305-0.305 0.152-0.533 0.076h-0.533zM17.676 30.552h0.838l0.229-0.152 0.152-0.152v-0.533c0-0.076 0-0.152-0.152-0.229l-0.533-0.152h-0.533v1.143zM23.314 31.848h-0.457l-0.305-0.762h-1.448l-0.305 0.762h-0.457l1.219-2.667h0.457l1.295 2.667zM21.257 30.857h1.143l-0.457-1.067-0.152-0.305v0.305l-0.533 1.067zM25.143 29.181l1.829 2.057v-2.057h0.381v2.667h-0.305l-1.905-2.133v2.057h-0.381v-2.667h0.305zM30.4 30.781v1.067h-0.381v-1.067l-1.143-1.6h0.457l0.762 1.143c0.027 0.062 0.053 0.139 0.074 0.217l0.003 0.012 0.076-0.152 0.076-0.076 0.762-1.067v-0.076h0.457l-1.067 1.6zM13.486 24.61h0.61c2.763-1.068 5.060-2.826 6.753-5.066l0.028-0.038c1.676-2.286 2.514-4.876 2.438-7.619l-3.048-2.59c0.187 0.85 0.295 1.826 0.295 2.827 0 2.040-0.445 3.975-1.244 5.715l0.035-0.085c-1.297 2.845-3.307 5.173-5.807 6.82l-0.060 0.037z">
            </path>
            <path
                d="M12.419 24.381v0.076c2.895-1.752 5.029-4.19 6.248-7.010s1.371-5.943 0.533-8.838l-4.343-3.81c1.374 2.346 2.186 5.165 2.186 8.175 0 4.436-1.763 8.46-4.628 11.41l0.004-0.004zM27.352 15.086c-0.836 3.143-2.673 5.772-5.143 7.592l-0.038 0.027-2.514 1.524c2.226-0.578 4.165-1.578 5.819-2.918l-0.029 0.022c1.524-1.295 2.895-2.895 3.657-4.648l-1.752-1.524z">
            </path>
            <path
                d="M26.667 14.705l-2.59-2.286c0 2.59-0.838 5.029-2.362 7.162s-3.657 3.886-6.248 5.105l1.752-0.076c2.362-0.838 4.495-2.286 6.095-3.962 1.553-1.604 2.697-3.613 3.257-5.854l0.019-0.089zM12.8 3.2l-3.048-2.667c-2.708 0.883-4.984 2.47-6.685 4.546l-0.020 0.025c-1.553 1.923-2.498 4.392-2.514 7.082l-0 0.004c0 2.819 1.067 5.486 3.048 7.619 1.981 2.286 4.8 3.81 7.848 4.571 2.851-2.91 4.611-6.9 4.611-11.3 0-3.704-1.247-7.117-3.344-9.842l0.028 0.038zM33.6 14.248c0-3.276-1.524-6.476-4.19-8.762-2.712-2.329-6.265-3.747-10.15-3.747-1.822 0-3.572 0.312-5.198 0.886l0.109-0.034 18.514 16.152c0.61-1.448 0.914-2.971 0.914-4.495z">
            </path>
        </symbol>
        <symbol id="icon-customer2" viewBox="0 0 25 32">
            <path
                d="M10.462 1.846h0.492c0.738 0.062 1.477 0.123 2.215 0.308v-1.723l0.122 0.024c-1.061-0.248-2.158-0.402-3.322-0.455h-0.31c-3.403 0.007-6.587 0.943-9.229 2.523v17.477l-0.105 0.052c2.563-1.394 5.466-2.242 8.597-2.391h0.677v-1.846l-0.031 0.001c-2.409 0.063-4.728 0.486-6.739 1.169l-0.615 0.246v-13.723l0.308-0.123c2.031-0.923 4.246-1.538 6.523-1.538l-0.021 0c0.14-0.004 0.28-0.006 0.421-0.006s0.281 0.002 0.4 0.005h0.677zM13.6 3.631h1.231c3.41-0.009 6.611-0.898 9.391-2.45l-0.098 0.050v17.231c-2.622 1.533-5.773 2.438-9.136 2.438-1.253 0-2.477-0.126-3.659-0.365l0.118 0.020v-17.231c0.642 0.149 1.4 0.259 2.176 0.306l0.040 0.002zM22.338 3.754l-0.615 0.185-1.723 0.554c-1.553 0.409-3.337 0.644-5.175 0.644-0.388 0-0.773-0.010-1.155-0.031l0.053 0.002h-0.492v13.969h0.369l1.231 0.123c2.669-0.005 5.188-0.641 7.418-1.766l-0.095 0.043 0.246-0.123v-13.6z">
            </path>
            <path
                d="M1.662 25.969c-0.161-0.15-0.377-0.243-0.615-0.246h-0.431c-0.362 0.13-0.617 0.471-0.617 0.871 0 0.018 0.001 0.037 0.002 0.055l-0-0.003v2.338c0 0.185 0 0.369 0.123 0.492 0 0.123 0.123 0.246 0.185 0.308l0.369 0.185h0.677c0.364-0.15 0.615-0.502 0.615-0.913 0-0.004-0-0.007-0-0.011v0.001-0.246h-0.615v0.369l-0.246 0.246h-0.123c-0.017 0.003-0.037 0.005-0.058 0.005-0.103 0-0.194-0.050-0.249-0.128l-0.001-0.001-0.062-0.369v-2.462c0.048-0.11 0.157-0.186 0.282-0.186 0.009 0 0.018 0 0.026 0.001l-0.001-0c0.111 0.014 0.203 0.085 0.245 0.183l0.001 0.002c0.123 0.062 0.123 0.185 0.123 0.308v0.185h0.615v-0.246c-0.008-0.287-0.123-0.546-0.308-0.739l0 0zM5.292 25.969c-0.188-0.151-0.429-0.243-0.692-0.243-0.127 0-0.248 0.021-0.362 0.060l0.008-0.002c-0.123 0-0.246 0.062-0.308 0.185l-0.246 0.308-0.062 0.431v2.277l0.062 0.431c0 0.123 0.123 0.246 0.246 0.308 0.062 0.123 0.185 0.185 0.308 0.185 0.11 0.043 0.237 0.067 0.369 0.067s0.26-0.025 0.376-0.070l-0.007 0.002c0.123 0 0.246-0.062 0.308-0.185 0.19-0.18 0.308-0.434 0.308-0.715 0-0.008-0-0.016-0-0.024l0 0.001v-2.277l-0.062-0.431c0-0.123-0.123-0.246-0.246-0.308zM5.046 28.923c0 0.002 0 0.004 0 0.006 0 0.117-0.047 0.224-0.123 0.302l0-0c-0.078 0.080-0.187 0.129-0.308 0.129s-0.229-0.049-0.308-0.129l-0-0c-0.076-0.078-0.123-0.184-0.123-0.302 0-0.002 0-0.004 0-0.006v0-2.277c0.025-0.074 0.068-0.136 0.123-0.184l0-0c0.078-0.080 0.187-0.129 0.308-0.129s0.229 0.049 0.308 0.129l0 0c0.076 0.078 0.123 0.184 0.123 0.302 0 0.002-0 0.004-0 0.006v-0 2.277zM10.092 29.969v-4.246h-0.615l-0.738 2.277-0.8-2.277h-0.615v4.246h0.615v-2.585l0.615 1.846h0.308l0.615-1.846v2.585h0.615zM13.538 26.031l-0.369-0.246h-1.354v4.185h0.615v-1.662h0.308c0.185 0 0.369 0 0.554-0.123l0.308-0.308 0.185-0.369c0.033-0.167 0.051-0.358 0.051-0.554s-0.019-0.387-0.054-0.573l0.003 0.019-0.246-0.369zM13.231 27.262l-0.062 0.308-0.185 0.123c-0.046 0.012-0.099 0.020-0.154 0.020s-0.108-0.007-0.158-0.020l0.004 0.001h-0.246v-1.415h0.308l0.246 0.062 0.185 0.185v0.8zM16.369 25.723h-0.492l-0.923 4.246h0.615l0.185-0.923h0.8l0.185 0.923h0.615l-0.985-4.246zM15.815 28.492l0.308-1.538 0.308 1.538h-0.615zM20.308 28.308l-0.985-2.585h-0.554v4.246h0.615v-2.523l0.923 2.523h0.615v-4.246h-0.615v2.585zM24 25.723l-0.492 1.662-0.554-1.662h-0.615l0.862 2.462v1.785h0.615v-1.846l0.8-2.4h-0.615zM0 31.138h0.308v0.862h0.185v-0.862h0.308v-0.123h-0.8v0.123zM2.462 31.015l-0.369 0.985h0.185l0.062-0.246h0.431l0.062 0.246h0.246l-0.431-0.985h-0.185zM2.462 31.631l0.062-0.431 0.185 0.369h-0.308zM4.923 31.631h0.185v0.123l-0.246 0.062c-0.006 0.001-0.013 0.001-0.021 0.001-0.063 0-0.12-0.024-0.164-0.063l0 0-0.123-0.246c0-0.246 0.123-0.369 0.308-0.369 0.018-0.007 0.040-0.011 0.062-0.011 0.102 0 0.185 0.083 0.185 0.185 0 0.004-0 0.007-0 0.011l0-0h0.185c0-0.246-0.185-0.369-0.431-0.369l-0.369 0.123c-0.082 0.088-0.132 0.206-0.132 0.336 0 0.034 0.003 0.066 0.010 0.098l-0.001-0.003c0 0.123 0 0.246 0.123 0.369 0.087 0.077 0.202 0.125 0.328 0.125 0.015 0 0.029-0.001 0.043-0.002l-0.002 0c0.185 0 0.308 0 0.431-0.185v-0.369h-0.431v0.185zM7.385 31.015h-0.246v0.985h0.677v-0.185h-0.431v-0.8zM9.415 31.015h-0.185v0.985h0.185v-0.985zM11.446 31.631l-0.369-0.615h-0.185v0.985h0.185v-0.615l0.369 0.615h0.185v-0.985h-0.185v0.615zM13.292 31.569h0.492v-0.185h-0.492v-0.246h0.554v-0.123h-0.738v0.985h0.738v-0.185h-0.554v-0.246zM17.846 31.385h-0.431v-0.369h-0.185v0.985h0.185v-0.431h0.369v0.431h0.185v-0.985h-0.123v0.369zM19.692 31.569h0.431v-0.185h-0.431v-0.246h0.554v-0.123h-0.738v0.985h0.738v-0.185h-0.554v-0.246zM22.154 31.569c0.185 0 0.246-0.123 0.246-0.308 0.001-0.006 0.001-0.013 0.001-0.021 0-0.063-0.024-0.12-0.063-0.164l0 0c-0.075-0.040-0.164-0.064-0.258-0.064-0.017 0-0.035 0.001-0.052 0.002l0.002-0h-0.431v0.985h0.246v-0.431h0.123l0.062 0.123 0.246 0.308h0.246l-0.123-0.185-0.246-0.246zM21.969 31.385h-0.123v-0.246h0.308c0.068 0 0.123 0.055 0.123 0.123s-0.055 0.123-0.123 0.123v0c-0.028 0.004-0.060 0.007-0.092 0.007s-0.065-0.003-0.096-0.007l0.003 0zM24.062 31.569h0.492v-0.185h-0.492v-0.246h0.554v-0.123h-0.738v0.985h0.738v-0.185h-0.554v-0.246z">
            </path>
        </symbol>
        <symbol id="icon-customer1" viewBox="0 0 28 32">
            <path
                d="M4.085 0l4.766 4.494h-8.851v21.923h23.149v-8.374l4.766 4.494v-22.536h-23.83zM22.945 17.498l-13.549-12.732h13.549v12.8zM18.723 23.217h-15.047v-14.706h1.021v13.685h14.026v1.021zM7.217 29.277h0.477l-0.817 1.498v0.953h-0.409v-0.953l-0.817-1.498h0.477l0.545 1.226 0.545-1.157zM7.898 31.796l0.204-0.613h0.953l0.204 0.613h0.409l-0.817-2.519h-0.409l-0.953 2.519h0.409zM8.579 29.889l0.34 0.953h-0.681l0.34-0.953zM10.826 30.774l-0.136 0.34c0 0.204 0.068 0.34 0.272 0.477 0.136 0.136 0.272 0.204 0.545 0.204 0.204 0 0.409 0 0.613-0.204l0.136 0.204h0.477l-0.34-0.477c0.136-0.136 0.204-0.409 0.204-0.681h-0.34c0 0.136 0 0.272-0.136 0.409l-0.477-0.545 0.204-0.136 0.204-0.204c0.056-0.084 0.089-0.187 0.089-0.298 0-0.149-0.060-0.284-0.157-0.383l0 0c-0.104-0.085-0.239-0.137-0.386-0.137-0.008 0-0.016 0-0.024 0l0.001-0c-0.019-0.002-0.042-0.003-0.064-0.003-0.156 0-0.299 0.052-0.414 0.14l0.002-0.001c-0.136 0.136-0.204 0.272-0.204 0.477l0.068 0.204 0.204 0.34c-0.131 0.075-0.244 0.166-0.339 0.271l-0.001 0.001zM11.915 31.319c-0.112 0.085-0.254 0.136-0.409 0.136v0l-0.272-0.068c-0.083-0.063-0.136-0.161-0.136-0.272v0c0-0.136 0.068-0.272 0.204-0.34h0.068l0.545 0.545zM11.438 30.298l-0.136-0.409v-0.204h0.477l0.068 0.204-0.068 0.204-0.272 0.204zM15.387 31.591c-0.136 0.136-0.34 0.204-0.681 0.204l-0.477-0.136c-0.136-0.068-0.272-0.204-0.34-0.409-0.136-0.136-0.136-0.34-0.136-0.545v-0.204l0 0.004c-0.002-0.028-0.003-0.057-0.003-0.086 0-0.218 0.051-0.424 0.139-0.599l0.34-0.34c0.136-0.136 0.34-0.136 0.477-0.136l0.681 0.136c0.204 0.204 0.272 0.409 0.272 0.681h-0.409l-0.136-0.409-0.34-0.068c-0.204 0-0.34 0-0.409 0.136-0.136 0.136-0.204 0.34-0.204 0.613v0.204l0.136 0.613 0.001 0.002c0.086 0.123 0.229 0.203 0.39 0.203 0.006 0 0.012-0 0.017-0 0.204 0 0.34 0 0.409-0.136 0.136-0.068 0.136-0.136 0.136-0.34h0.409c0 0.272-0.068 0.477-0.272 0.613zM17.906 31.251l0.068-0.681v-0.068c0-0.272 0-0.477-0.136-0.681-0.166-0.285-0.469-0.473-0.817-0.477h-0c-0.204 0-0.409 0-0.545 0.136-0.136 0.068-0.272 0.204-0.34 0.409-0.136 0.136-0.136 0.34-0.136 0.613v0.136c0 0.204 0 0.409 0.136 0.613 0 0.204 0.204 0.34 0.34 0.409l0.545 0.136c0.204 0 0.34 0 0.477-0.136 0.204-0.068 0.272-0.272 0.409-0.409zM17.43 29.889l0.136 0.613v0.136c0 0.272 0 0.477-0.136 0.613l-0.409 0.204c-0.024 0.004-0.052 0.007-0.081 0.007-0.164 0-0.309-0.083-0.395-0.209l-0.001-0.002-0.136-0.681v-0.068c0-0.272 0-0.477 0.136-0.681l0.477-0.136c0.136 0 0.272 0 0.409 0.204z">
            </path>
        </symbol>
        <symbol id="icon-clock" viewBox="0 0 32 32">
            <path fill="#212121" style="fill: var(--color5, #212121)"
                d="M31.314 15.314c0-0.005 0-0.010 0-0.016 0-8.458-6.856-15.314-15.314-15.314s-15.314 6.856-15.314 15.314c0 6.859 4.51 12.665 10.726 14.615l0.108 0.029c0.137 0 0.229-0.046 0.366-0.137 0.137-0.046 0.229-0.183 0.274-0.366l3.84-12.206c1.058-0.003 1.915-0.861 1.915-1.92 0-1.060-0.86-1.92-1.92-1.92-0.297 0-0.578 0.067-0.829 0.188l0.012-0.005-5.12-5.12c-0.117-0.117-0.279-0.189-0.457-0.189-0.357 0-0.646 0.289-0.646 0.646 0 0.179 0.072 0.34 0.189 0.457l5.12 5.12c-0.114 0.235-0.18 0.511-0.18 0.802 0 0.602 0.284 1.137 0.725 1.48l0.004 0.003-3.657 11.703c-5.431-2.020-9.229-7.159-9.229-13.186 0-7.751 6.283-14.034 14.034-14.034s14.034 6.283 14.034 14.034c0 5.684-3.379 10.578-8.237 12.785l-0.088 0.036-0.366-1.874c-0.057-0.3-0.317-0.524-0.63-0.524-0.162 0-0.31 0.060-0.423 0.159l0.001-0.001-3.84 3.429c-0.137 0.118-0.223 0.292-0.223 0.485 0 0.286 0.188 0.529 0.447 0.61l0.005 0.001 4.891 1.6c0.058 0.019 0.125 0.030 0.195 0.030 0.353 0 0.64-0.287 0.64-0.64 0-0.043-0.004-0.085-0.012-0.126l0.001 0.004-0.366-1.829c5.527-2.379 9.326-7.778 9.326-14.065 0-0.005 0-0.011 0-0.016v0.001zM16 14.629c0.353 0 0.64 0.287 0.64 0.64s-0.287 0.64-0.64 0.64v0c-0.353 0-0.64-0.287-0.64-0.64s0.287-0.64 0.64-0.64v0zM18.103 29.486l2.194-1.966 0.594 2.834-2.789-0.914z">
            </path>
            <path fill="#2196f3" style="fill: var(--color4, #2196f3)"
                d="M15.36 3.2v1.28c0 0.353 0.287 0.64 0.64 0.64s0.64-0.287 0.64-0.64v-1.28c0-0.353-0.287-0.64-0.64-0.64s-0.64 0.287-0.64 0.64v0zM3.886 14.629c-0.366 0-0.663 0.297-0.663 0.663s0.297 0.663 0.663 0.663h1.28c0.353 0 0.64-0.287 0.64-0.64s-0.287-0.64-0.64-0.64h-1.28zM28.114 15.954c0.353 0 0.64-0.287 0.64-0.64s-0.287-0.64-0.64-0.64h-1.28c-0.353 0-0.64 0.287-0.64 0.64s0.287 0.64 0.64 0.64h1.28z">
            </path>
        </symbol>
        <symbol id="icon-astronaut" viewBox="0 0 32 32">
            <path fill="#2196f3" style="fill: var(--color4, #2196f3)"
                d="M32 4.526c-0.091-0.183-0.274-0.32-0.457-0.366l-1.92-0.274-0.823-1.737c-0.183-0.366-0.777-0.366-0.96 0l-0.914 1.737-1.829 0.274c-0.265 0.042-0.465 0.269-0.465 0.542 0 0.144 0.055 0.275 0.146 0.372l-0-0 1.371 1.371-0.32 1.874c-0.002 0.015-0.002 0.033-0.002 0.051 0 0.303 0.246 0.549 0.549 0.549 0.084 0 0.163-0.019 0.234-0.052l-0.003 0.001 1.691-0.914 1.691 0.914c0.068 0.032 0.147 0.051 0.231 0.051 0.303 0 0.549-0.246 0.549-0.549 0-0.018-0.001-0.036-0.003-0.053l0 0.002-0.32-1.92 1.371-1.371c0.183-0.091 0.229-0.32 0.137-0.503zM29.531 5.851c-0.137 0.137-0.183 0.32-0.183 0.457l0.183 1.143-1.006-0.549c-0.067-0.032-0.146-0.050-0.229-0.050s-0.162 0.018-0.232 0.051l0.003-0.001-1.006 0.549 0.183-1.143c0-0.137 0-0.32-0.137-0.457l-0.823-0.777 1.097-0.183c0.183 0 0.32-0.137 0.457-0.274l0.457-1.006 0.503 0.96c0.091 0.137 0.229 0.274 0.411 0.274l1.097 0.183-0.777 0.777zM26.149 20.526h-1.097v1.051h1.097v-1.006zM26.149 22.674h-1.097v1.051h1.097v-1.051zM27.2 21.577h-1.051v1.097h1.051v-1.097zM25.051 21.577h-1.051v1.097h1.051v-1.097zM22.4 26.377h-1.051v1.097h1.051v-1.097zM22.4 28.526h-1.051v1.051h1.051v-1.051zM23.451 27.429h-1.051v1.097h1.051v-1.097zM21.349 27.429h-1.097v1.097h1.097v-1.097zM16 24.229h-1.051v1.097h1.051v-1.097zM16 26.377h-1.051v1.097h1.051v-1.097zM17.051 25.326h-1.051v1.051h1.051v-1.051zM14.949 25.326h-1.097v1.051h1.097v-1.051zM5.851 6.126h-1.051v1.051h1.051v-1.051zM5.851 8.229h-1.051v1.097h1.051v-1.097z">
            </path>
            <path fill="#2196f3" style="fill: var(--color4, #2196f3)"
                d="M6.949 7.177h-1.097v1.097h1.097v-1.097zM4.8 7.177h-1.051v1.097h1.051v-1.097z"></path>
            <path fill="#212121" style="fill: var(--color5, #212121)"
                d="M24.686 14.171c-0.266-0.377-0.668-0.643-1.132-0.73l-0.011-0.002c-0.457-0.046-0.96 0.091-1.371 0.366l-1.234 0.96-1.92 1.417-1.371-0.549c2.403-1.128 4.037-3.528 4.037-6.309 0-3.81-3.067-6.904-6.867-6.948l-0.004-0c-3.818 0.025-6.904 3.127-6.904 6.948 0 1.392 0.409 2.689 1.114 3.776l-0.016-0.027h-3.063l-3.2 1.646-1.92 0.914h-0.091c-0.524 0.317-0.869 0.884-0.869 1.531 0 0.985 0.799 1.784 1.784 1.784 0.338 0 0.653-0.094 0.922-0.257l-0.008 0.004 1.371-0.731 2.286-1.143h1.371l-5.394 5.349-1.371 1.371c-0.286 0.296-0.462 0.699-0.462 1.143s0.176 0.847 0.462 1.143l-0-0c0.3 0.313 0.722 0.507 1.189 0.507s0.889-0.194 1.188-0.507l0.001-0.001 1.371-1.28 1.691-1.28 0.914 0.914-1.783 1.737-1.28 1.371c-0.299 0.298-0.484 0.71-0.484 1.166s0.185 0.868 0.484 1.166l0 0c0.305 0.302 0.725 0.488 1.189 0.488s0.883-0.186 1.189-0.488l3.428-3.428 1.006-0.96 5.166-5.714 3.474 0.503c0.041 0.012 0.088 0.019 0.137 0.019s0.096-0.007 0.141-0.020l-0.004 0.001 0.046-0.046h0.046l3.2-2.149 0.046-0.046h0.046l1.28-1.234c0.345-0.326 0.559-0.786 0.559-1.297 0-0.388-0.124-0.747-0.334-1.040l0.004 0.005zM2.194 17.783c-0.183 0.091-0.366 0.091-0.594 0-0.264-0.114-0.445-0.373-0.445-0.673 0-0.225 0.101-0.426 0.261-0.56l0.001-0.001 1.28-0.64 0.32 0.914 0.137 0.457-0.96 0.457zM5.669 15.954l-1.554 0.777-0.274-0.731-0.183-0.549 2.011-1.006v1.554zM20.754 9.326c0 0.914-0.183 1.783-0.594 2.56l-4.16-1.92c-0.041-0.569-0.336-1.061-0.771-1.368l-0.006-0.004 1.463-4.846c2.377 0.731 4.114 2.971 4.114 5.577zM9.006 9.326c0.032-3.232 2.66-5.841 5.897-5.841 0.226 0 0.448 0.013 0.667 0.037l-0.027-0.002-1.417 4.709c-0.027-0.001-0.059-0.002-0.091-0.002-1.010 0-1.829 0.819-1.829 1.829 0 0.001 0 0.002 0 0.002v-0c-0.013 0.081-0.020 0.175-0.020 0.271 0 1.010 0.819 1.829 1.829 1.829 0.779 0 1.444-0.487 1.707-1.172l0.004-0.012 3.84 1.783c-1.088 1.432-2.791 2.347-4.709 2.347-3.23 0-5.854-2.597-5.897-5.818l-0-0.004zM14.949 10.103c0 0.457-0.366 0.823-0.823 0.823s-0.777-0.366-0.777-0.823 0.32-0.777 0.777-0.777 0.823 0.366 0.823 0.777zM2.514 25.189c-0.229 0.183-0.64 0.183-0.869 0-0.131-0.11-0.215-0.274-0.215-0.457s0.083-0.347 0.214-0.456l0.001-0.001 0.96-0.914 0.869 0.823-1.006 0.96zM5.714 28.846c-0.229 0.274-0.594 0.274-0.823 0-0.102-0.107-0.165-0.252-0.165-0.411s0.063-0.305 0.166-0.412l0.914-0.914 0.457 0.366 0.457 0.457-1.006 0.914zM9.189 25.417l-1.737 1.737-0.457-0.366-0.411-0.457 1.783-1.783 0.091-0.137v-0.183l0.046-0.091v-0.183l-0.137-0.137v-0.046l-1.6-1.6h-0.091l-0.091-0.091h-0.091l-0.091-0.046h-0.183l-0.091 0.046h-0.183l-1.737 1.371-0.914-0.914 2.377-2.377 4.389 4.297-0.914 0.914zM16.046 18.377h-0.046c-0.019-0.002-0.040-0.004-0.062-0.004-0.136 0-0.259 0.054-0.349 0.141l0-0v0.046l-4.8 5.211-4.343-4.251 2.834-2.834c0.088-0.097 0.141-0.226 0.141-0.367 0-0.288-0.222-0.525-0.505-0.547l-0.002-0h-2.24v-1.6h3.109c1.266 1.312 3.039 2.127 5.003 2.127 0.445 0 0.881-0.042 1.303-0.122l-0.043 0.007 0.137 0.091 2.423 0.914 0.137 0.777 0.183 0.914-2.971-0.457zM20.069 18.56l-0.32-1.554 1.463-1.051 0.366 0.457 0.549 0.777-2.057 1.371zM23.817 15.726l-0.823 0.823-0.914-1.28 0.823-0.594c0.137-0.137 0.32-0.183 0.503-0.183 0.372 0.037 0.661 0.349 0.661 0.728 0 0.197-0.078 0.375-0.204 0.507l0-0z">
            </path>
            <path fill="#212121" style="fill: var(--color5, #212121)"
                d="M13.623 18.56l-2.194-2.149c-0.229-0.229-0.549-0.229-0.777 0l-2.149 2.149c-0.087 0.097-0.14 0.225-0.14 0.366s0.053 0.269 0.14 0.366l-0-0 2.149 2.149c0.099 0.1 0.237 0.161 0.389 0.161s0.289-0.062 0.389-0.161v0l2.149-2.149c0.087-0.097 0.14-0.225 0.14-0.366s-0.053-0.269-0.14-0.366l0 0zM11.063 20.297l-1.371-1.371 1.371-1.371 1.371 1.371-1.371 1.371zM17.143 5.029l-0.229 1.097c0.046 0 1.737 0.457 1.737 2.149h1.006c0-2.057-1.646-2.971-2.56-3.2zM19.703 9.326h-1.051v1.051h1.006v-1.051z">
            </path>
        </symbol>
        <symbol id="icon-antenna" viewBox="0 0 32 32">
            <path fill="#212121" style="fill: var(--color5, #212121)"
                d="M30.766 22.080l-8.457-8.503 0.96-4.571c0.229 0.046 0.457 0.137 0.777 0.137 0.007 0 0.016 0 0.025 0 1.187 0 2.149-0.962 2.149-2.149s-0.962-2.149-2.149-2.149c-1.187 0-2.149 0.962-2.149 2.149 0 0.245 0.041 0.481 0.117 0.701l-0.005-0.015-4.983 0.594-8.091-8.137c-0.091-0.091-0.229-0.137-0.366-0.137s-0.274 0.046-0.366 0.137l-1.509 1.509c-0.229 0.229-0.229 0.549 0 0.777l0.823 0.777c-1.129 2.053-1.794 4.499-1.794 7.1 0 4.161 1.7 7.925 4.444 10.635l0.002 0.002-0.046 0.549v6.217h-6.4c-0.014-0-0.030-0-0.046-0-1.464 0-2.651 1.187-2.651 2.651 0 0 0 0 0 0v-0 1.051c0 0.32 0.274 0.549 0.549 0.549h24.549c0.274 0 0.503-0.229 0.503-0.549v-1.051c0-1.463-1.189-2.651-2.651-2.651h-6.4v-2.743c0.899 0.191 1.932 0.3 2.991 0.3 2.586 0 5.020-0.653 7.146-1.803l-0.080 0.039 0.869 0.823c0.091 0.091 0.229 0.137 0.366 0.137s0.274-0.046 0.366-0.137l1.509-1.509c0.229-0.229 0.229-0.549 0-0.777zM23.314 6.217c0.186-0.169 0.434-0.272 0.706-0.272 0.581 0 1.051 0.471 1.051 1.051 0 0.555-0.431 1.010-0.976 1.049l-0.003 0c-0.021 0.002-0.046 0.002-0.072 0.002-0.581 0-1.051-0.471-1.051-1.051 0-0.309 0.133-0.586 0.345-0.779l0.001-0.001zM22.080 9.737l-0.594 2.926-1.189-1.143 1.783-1.783zM21.486 8.823l-1.92 1.92-1.509-1.509 3.429-0.411zM24 28.8c0.914 0 1.6 0.731 1.6 1.6v0.549h-23.451v-0.549c0-0.914 0.686-1.6 1.6-1.6h20.251zM16.549 26.651v1.097h-5.349v-1.097h5.349zM11.2 25.6v-4.069c0-1.28 1.189-2.331 2.651-2.331 1.509 0 2.697 1.051 2.697 2.331v4.069h-5.349zM17.6 23.909v-2.423c0-1.829-1.691-3.383-3.749-3.383-1.326 0-2.56 0.64-3.246 1.783-2.369-2.481-3.827-5.85-3.827-9.559 0-2.319 0.57-4.505 1.578-6.426l-0.036 0.076 18.606 18.743c-1.816 0.94-3.965 1.492-6.242 1.492-1.093 0-2.157-0.127-3.177-0.367l0.094 0.019zM28.891 23.223l-0.731-0.823-19.566-19.657-0.823-0.686 0.777-0.777 7.909 8 13.257 13.12-0.777 0.777z">
            </path>
            <path fill="#2196f3" style="fill: var(--color4, #2196f3)"
                d="M13.897 20.251c-0.884 0-1.6 0.716-1.6 1.6s0.716 1.6 1.6 1.6v0c0.884 0 1.6-0.716 1.6-1.6s-0.716-1.6-1.6-1.6v0zM14.263 22.263c-0.101 0.112-0.247 0.183-0.409 0.183-0.303 0-0.549-0.246-0.549-0.549s0.244-0.547 0.546-0.549h0c0.001 0 0.002 0 0.003 0 0.303 0 0.549 0.246 0.549 0.549 0 0.141-0.053 0.269-0.14 0.366l0-0z">
            </path>
        </symbol>


        <symbol id="icon-email" viewBox="0 0 32 32">
            <path
                d="M26.667 5.333h-21.333c-1.467 0-2.653 1.2-2.653 2.667l-0.013 16c0 1.467 1.2 2.667 2.667 2.667h21.333c1.467 0 2.667-1.2 2.667-2.667v-16c0-1.467-1.2-2.667-2.667-2.667zM26.133 11l-9.427 5.893c-0.427 0.267-0.987 0.267-1.413 0l-9.427-5.893c-0.333-0.213-0.533-0.573-0.533-0.96 0-0.893 0.973-1.427 1.733-0.96l8.933 5.587 8.933-5.587c0.76-0.467 1.733 0.067 1.733 0.96 0 0.387-0.2 0.747-0.533 0.96z">
            </path>
        </symbol>

        <symbol id="icon-person" viewBox="0 0 32 32">
            <path
                d="M16 16c2.947 0 5.333-2.387 5.333-5.333s-2.387-5.333-5.333-5.333c-2.947 0-5.333 2.387-5.333 5.333s2.387 5.333 5.333 5.333zM16 18.667c-3.56 0-10.667 1.787-10.667 5.333v1.333c0 0.733 0.6 1.333 1.333 1.333h18.667c0.733 0 1.333-0.6 1.333-1.333v-1.333c0-3.547-7.107-5.333-10.667-5.333z">
            </path>
        </symbol>

        <symbol id="icon-phone" viewBox="0 0 32 32">
            <path
                d="M24.882 19.773l-3.268-0.373c-0.785-0.090-1.557 0.18-2.11 0.733l-2.367 2.367c-3.641-1.853-6.626-4.825-8.478-8.478l2.38-2.38c0.553-0.553 0.823-1.325 0.733-2.11l-0.373-3.242c-0.154-1.299-1.248-2.277-2.56-2.277h-2.226c-1.454 0-2.663 1.209-2.573 2.663 0.682 10.987 9.469 19.761 20.443 20.443 1.454 0.090 2.663-1.119 2.663-2.573v-2.226c0.013-1.3-0.965-2.393-2.264-2.547z">
            </path>
        </symbol>

        <symbol id="icon-close-btn" viewBox="0 0 32 32">
            <path
                d="M26.667 7.303l-1.97-1.97-7.808 7.808-7.808-7.808-1.97 1.97 7.808 7.808-7.808 7.808 1.97 1.97 7.808-7.808 7.808 7.808 1.97-1.97-7.808-7.808 7.808-7.808z">
            </path>
        </symbol>

        <symbol id="icon-checkbox" viewBox="0 0 34 32">
            <path
                d="M30.341 3.556v24.889h-26.548v-24.889h26.548zM30.341 0h-26.548c-2.086 0-3.793 1.6-3.793 3.556v24.889c0 1.956 1.707 3.556 3.793 3.556h26.548c2.086 0 3.793-1.6 3.793-3.556v-24.889c0-1.956-1.707-3.556-3.793-3.556z">
            </path>
        </symbol>

        <symbol id="icon-checkbox-check" viewBox="0 0 34 32">
            <path fill="#2196f3" style="fill: var(--color1, #2196f3)"
                d="M4.267 0h25.6c2.356 0 4.267 1.91 4.267 4.267v23.467c0 2.356-1.91 4.267-4.267 4.267h-25.6c-2.356 0-4.267-1.91-4.267-4.267v-23.467c0-2.356 1.91-4.267 4.267-4.267z">
            </path>
            <path fill="#fff" stroke="#fff" stroke-width="0.4267" stroke-miterlimit="4" stroke-linecap="butt"
                stroke-linejoin="miter" style="fill: var(--color2, #fff); stroke: var(--color2, #fff)"
                d="M8.442 16.537l-0.147-0.14-2.205 2.088 7.767 7.41 16.318-15.567-2.19-2.089-14.128 13.465-5.416-5.167z">
            </path>
        </symbol>

        <symbol id="icon-send" viewBox="0 0 32 32">
            <path fill="#fff" style="fill: var(--color1, #fff)"
                d="M32 0l-32 18 10.227 3.788 15.773-14.788-11.998 16.186 0.010 0.004-0.012-0.004v8.814l5.735-6.691 7.265 2.691 5-28z">
            </path>
        </symbol>
    </defs>
</svg>